<?xml version="1.0" encoding="UTF-8" standalone="no"?>
<!DOCTYPE svg PUBLIC "-//W3C//DTD SVG 1.1//EN" "http://www.w3.org/Graphics/SVG/1.1/DTD/svg11.dtd">
<svg width="100%" height="100%" viewBox="0 0 2732 800" version="1.1" xmlns="http://www.w3.org/2000/svg" xmlns:xlink="http://www.w3.org/1999/xlink" xml:space="preserve" xmlns:serif="http://www.serif.com/" style="fill-rule:evenodd;clip-rule:evenodd;stroke-linejoin:round;stroke-miterlimit:2;">
    <g transform="matrix(1.72706,0,0,1.72706,-536.434,-528.415)">
        <g transform="matrix(1,0,0,1,-2.53637,-0.121411)">
            <g transform="matrix(0.995545,0.094289,-0.094289,0.995545,90.1105,0.2341)">
                <path d="M386.085,458.705L299.923,681.814L309.312,711.665L404.325,673.708L395.467,647.192L396.262,536.511L428.453,529.408L427.346,634.269L436.36,661.618C436.36,661.618 502.942,639.868 569.028,622.22C627.999,606.471 686.46,594.793 698.685,592.029L696.212,562.378L698.42,459.361C729.222,480.236 733.076,554.542 733.076,554.542L737.038,584.329L819.879,571.58L815.101,528.951C814.801,525.498 774.331,465.971 742.34,432.891C731.648,421.836 721.904,413.734 714.922,411.667L386.085,458.705Z" style="fill-opacity:0.75;"/>
                <path d="M385.839,456.985C385.217,457.074 384.691,457.492 384.465,458.079L298.302,681.188C298.16,681.555 298.148,681.96 298.266,682.335L307.655,712.186C307.8,712.647 308.131,713.027 308.567,713.234C309.004,713.441 309.507,713.457 309.956,713.278L404.969,675.321C405.824,674.979 406.264,674.03 405.972,673.157L397.206,646.915C397.206,646.915 397.99,537.909 397.99,537.909C397.99,537.909 426.693,531.575 426.693,531.575C426.693,531.575 425.609,634.251 425.609,634.251C425.607,634.442 425.637,634.632 425.696,634.813L434.711,662.161C435.01,663.071 435.989,663.566 436.9,663.269C436.9,663.269 465.073,654.066 502.951,642.777C523.282,636.718 546.409,630.058 569.476,623.898C591.914,617.906 614.278,612.504 634.044,607.958C666.208,600.563 691.5,595.434 699.068,593.723C699.913,593.532 700.488,592.747 700.416,591.884L697.951,562.325L700.084,462.776C708.728,469.888 714.96,481.502 719.512,494.046C729.652,521.985 731.342,554.632 731.342,554.632C731.344,554.679 731.348,554.725 731.355,554.771L735.316,584.558C735.378,585.02 735.623,585.439 735.997,585.719C736.37,585.999 736.841,586.116 737.302,586.045L820.144,573.297C821.064,573.155 821.709,572.313 821.606,571.387L816.827,528.757L816.831,528.801C816.811,528.569 816.728,528.194 816.521,527.702C816.136,526.788 815.187,525.079 813.745,522.73C808.505,514.198 796.569,496.777 782.445,478.125C770.157,461.897 756.214,444.739 743.588,431.684C738.064,425.972 732.789,421.042 728.009,417.304C723.273,413.6 718.99,411.06 715.416,410.001C715.176,409.93 714.924,409.912 714.676,409.947L385.839,456.985ZM813.383,529.218L817.967,570.117C817.967,570.117 738.526,582.342 738.526,582.342C738.526,582.342 734.807,554.38 734.807,554.38C734.712,552.673 732.809,520.502 722.778,492.861C717.507,478.337 709.964,465.086 699.394,457.923C698.867,457.566 698.188,457.526 697.622,457.818C697.057,458.11 696.697,458.688 696.683,459.324L694.475,562.341C694.474,562.402 694.476,562.462 694.481,562.523L696.828,590.662C687.81,592.642 663.592,597.599 633.266,604.573C613.463,609.126 591.058,614.538 568.58,620.542C545.48,626.71 522.319,633.38 501.959,639.448C469.407,649.149 444.014,657.312 437.469,659.431C437.469,659.431 429.086,634 429.086,634C429.086,634 430.19,529.426 430.19,529.426C430.195,528.897 429.959,528.393 429.548,528.059C429.137,527.726 428.596,527.597 428.078,527.712L395.888,534.815C395.097,534.989 394.531,535.688 394.525,536.498L393.73,647.179C393.728,647.37 393.759,647.561 393.819,647.742L402.158,672.703C391.023,677.151 322.261,704.621 310.407,709.357C310.407,709.357 301.762,681.873 301.762,681.873L387.339,460.28L714.782,413.442C717.964,414.468 721.71,416.788 725.869,420.041C730.54,423.694 735.692,428.516 741.091,434.099C753.629,447.064 767.472,464.107 779.675,480.222C793.711,498.758 805.577,516.069 810.784,524.548C811.873,526.321 812.664,527.694 813.109,528.596C813.225,528.833 813.351,529.139 813.383,529.218Z" style="fill-opacity:0;"/>
            </g>
            <g transform="matrix(0.995545,0.094289,-0.094289,0.995545,92.7844,-32.4169)">
                <path d="M303.237,339.362L301.548,712.379L385.888,680.095L385.83,539.905L426.733,532.866L426.896,666.031L506.492,640.873L509.636,319.418L427.908,327.378L426.645,451.604L386.085,458.705L386.413,331.239L303.237,339.362Z" style="fill:rgb(211,211,211);"/>
                <path d="M303.068,337.633C302.181,337.719 301.504,338.463 301.5,339.354L299.811,712.371C299.809,712.944 300.089,713.482 300.561,713.808C301.032,714.133 301.634,714.206 302.169,714.001L386.509,681.717C387.181,681.46 387.625,680.814 387.625,680.094C387.625,680.094 387.574,556.282 387.568,541.368C387.568,541.368 424.999,534.928 424.999,534.928C424.999,534.927 425.159,666.033 425.159,666.033C425.159,666.586 425.424,667.106 425.87,667.433C426.316,667.759 426.892,667.854 427.419,667.687L507.016,642.529C507.732,642.303 508.222,641.641 508.229,640.89L511.373,319.435C511.378,318.942 511.173,318.47 510.809,318.137C510.446,317.804 509.958,317.641 509.467,317.689L427.739,325.65C426.856,325.736 426.18,326.473 426.171,327.361L424.923,450.142C424.923,450.142 387.828,456.636 387.828,456.636C387.828,456.636 388.15,331.243 388.15,331.243C388.151,330.752 387.945,330.284 387.582,329.954C387.219,329.623 386.733,329.462 386.244,329.51L303.068,337.633ZM304.967,340.938L384.671,333.154C384.63,349.079 384.348,458.7 384.348,458.7C384.347,459.214 384.573,459.702 384.966,460.033C385.359,460.364 385.879,460.504 386.385,460.416L426.945,453.315C427.769,453.17 428.373,452.458 428.382,451.621L429.629,328.956C429.629,328.956 507.88,321.334 507.88,321.334C507.88,321.334 504.98,617.832 504.768,639.596C504.768,639.596 428.63,663.661 428.63,663.661C428.63,663.661 428.47,532.864 428.47,532.864C428.47,532.353 428.243,531.867 427.852,531.537C427.46,531.208 426.943,531.068 426.439,531.155L385.536,538.193C384.702,538.336 384.093,539.059 384.093,539.905L384.15,678.9C384.15,678.9 303.297,709.849 303.297,709.849C303.297,709.849 304.967,340.938 304.967,340.938L304.967,340.938Z" style="fill:rgb(255,1,1);"/>
            </g>
            <g transform="matrix(1.24299,0.12634,-0.100575,0.989502,-121.298,-71.8062)">
                <path d="M584.786,334.975L584.98,657.563L653.286,634.877L650.449,327.094L584.786,334.975Z" style="fill:rgb(211,211,211);"/>
                <path d="M584.654,333.236C583.94,333.322 583.396,334.075 583.396,334.976L583.59,657.565C583.59,658.107 583.791,658.617 584.133,658.948C584.474,659.278 584.919,659.39 585.336,659.252L653.642,636.565C654.258,636.361 654.684,635.657 654.677,634.856L651.839,327.073C651.834,326.585 651.667,326.121 651.378,325.794C651.089,325.468 650.704,325.309 650.316,325.355L584.654,333.236ZM586.178,336.562L649.076,329.013C649.076,329.013 651.68,611.492 651.884,633.536C651.884,633.536 586.369,655.296 586.369,655.296C586.369,655.296 586.178,336.562 586.178,336.562L586.178,336.562Z" style="fill:rgb(255,1,1);"/>
            </g>
            <g transform="matrix(0.999159,0.0410027,-0.0410027,0.999159,-31.0612,-410.215)">
                <path d="M703.075,1020.66L791.386,1005.99C791.386,1005.99 798.148,909.637 798.453,909.93C844.202,953.774 841.639,998.306 841.639,998.306L919.608,990.453C919.608,990.453 929.328,918.795 868.249,877.489C887.379,871.257 923.308,841.832 923.316,799.33C923.333,711.47 807.966,712.412 807.966,712.412L717.567,715.451L703.075,1020.66ZM804.871,787.768L801.822,844.423C801.822,844.423 842.25,838.631 841.776,816.604C841.285,793.822 804.871,787.768 804.871,787.768Z" style="fill:rgb(211,211,211);"/>
                <path d="M799.828,913.705C812.589,926.453 821.308,939.185 827.256,950.766C841.046,977.613 839.905,998.207 839.905,998.207C839.876,998.714 840.071,999.209 840.438,999.561C840.805,999.912 841.308,1000.09 841.814,1000.03L919.782,992.182C920.582,992.101 921.222,991.483 921.33,990.687C921.33,990.687 925.587,959.433 911.041,926.098C903.731,909.345 891.68,892.065 871.966,877.959C882.857,873.44 897.562,862.828 908.724,847.471C918.148,834.505 925.05,818.173 925.053,799.33C925.059,772.405 914.449,753.642 899.613,740.556C865.265,710.257 807.952,710.675 807.952,710.675C807.937,710.675 807.922,710.675 807.907,710.676L717.509,713.715C716.605,713.745 715.875,714.465 715.832,715.369L701.34,1020.58C701.315,1021.1 701.529,1021.61 701.921,1021.96C702.313,1022.3 702.842,1022.46 703.36,1022.37L791.671,1007.7C792.463,1007.57 793.062,1006.91 793.119,1006.11C793.119,1006.11 797.48,943.97 799.355,919.655C799.538,917.277 799.698,915.262 799.828,913.705ZM704.913,1018.59L719.227,717.133C731.21,716.73 806.472,714.2 808.001,714.149C809.218,714.141 864.222,713.97 897.315,743.161C911.488,755.664 921.584,773.606 921.579,799.33C921.576,817.377 914.94,833.01 905.914,845.428C894.14,861.627 878.307,872.386 867.711,875.837C867.08,876.043 866.621,876.59 866.529,877.247C866.436,877.904 866.726,878.556 867.276,878.928C887.992,892.938 900.441,910.491 907.857,927.488C920.229,955.84 918.625,982.639 918.034,988.866C918.034,988.866 843.399,996.383 843.399,996.383C843.323,990.434 842.054,971.97 830.347,949.178C823.86,936.549 814.16,922.577 799.655,908.676C799.457,908.486 797.07,907.556 796.714,909.74C796.689,909.895 796.65,910.224 796.602,910.713C796.46,912.171 796.212,915.228 795.891,919.388C794.18,941.576 790.399,995.254 789.749,1004.5L704.913,1018.59ZM805.156,786.055C804.669,785.974 804.17,786.104 803.784,786.413C803.399,786.723 803.163,787.181 803.137,787.675L800.087,844.33C800.059,844.849 800.265,845.353 800.649,845.704C801.033,846.055 801.553,846.216 802.068,846.142C802.068,846.142 820.167,843.53 832.302,835.251C838.873,830.768 843.686,824.647 843.512,816.566C843.342,808.668 839.205,802.613 833.609,798.071C822.352,788.935 805.156,786.055 805.156,786.055ZM806.498,789.859C811.097,790.853 823.018,793.95 831.419,800.769C836.237,804.679 839.893,809.841 840.039,816.641C840.187,823.496 835.919,828.578 830.345,832.381C821.245,838.589 808.613,841.424 803.673,842.346C803.673,842.346 806.498,789.859 806.498,789.859L806.498,789.859Z" style="fill:rgb(255,1,1);"/>
            </g>
        </g>
        <g>
            <g transform="matrix(1,0,0,1,-1.69704,13.0717)">
                <path d="M1058.09,341.847L1057.84,417.256L1121.72,417.418L1120.94,620.058L1201.88,622.857L1199.65,416.882L1266.17,416.796L1267.01,342.5L1058.09,341.847Z" style="fill-opacity:0.75;"/>
                <path d="M1058.09,340.11C1057.13,340.107 1056.35,340.882 1056.35,341.841L1056.1,417.25C1056.1,417.711 1056.28,418.154 1056.6,418.48C1056.93,418.807 1057.37,418.992 1057.83,418.993L1119.98,419.15C1119.98,419.15 1119.2,620.051 1119.2,620.051C1119.2,620.99 1119.94,621.761 1120.88,621.794L1201.83,624.593C1202.3,624.609 1202.76,624.431 1203.1,624.099C1203.44,623.768 1203.63,623.312 1203.62,622.838L1201.41,418.617C1201.41,418.617 1266.17,418.533 1266.17,418.533C1267.12,418.532 1267.9,417.766 1267.91,416.815L1268.75,342.52C1268.76,342.057 1268.58,341.611 1268.25,341.281C1267.93,340.951 1267.48,340.765 1267.02,340.763L1058.09,340.11ZM1059.82,343.589L1265.26,344.232C1265.26,344.232 1264.45,415.061 1264.45,415.061C1264.45,415.061 1199.65,415.145 1199.65,415.145C1199.19,415.145 1198.74,415.331 1198.42,415.661C1198.09,415.991 1197.91,416.437 1197.92,416.901L1200.13,621.058C1200.13,621.058 1122.68,618.38 1122.68,618.38C1122.68,618.38 1123.46,417.424 1123.46,417.424C1123.46,416.963 1123.28,416.52 1122.95,416.193C1122.63,415.866 1122.19,415.682 1121.73,415.68L1059.58,415.523L1059.82,343.589Z" style="fill:rgb(255,1,1);fill-opacity:0;"/>
            </g>
            <g transform="matrix(1,0,0,1,-1.43245,-9.31475)">
                <path d="M1058.09,341.847L1057.84,417.256L1121.72,417.418L1122.18,616.801L1199.05,618.705L1199.65,416.882L1263.85,416.858L1264.19,341.736L1058.09,341.847Z" style="fill:rgb(211,211,211);"/>
                <path d="M1058.09,340.11C1057.13,340.11 1056.35,340.884 1056.35,341.841L1056.1,417.25C1056.1,417.711 1056.28,418.154 1056.6,418.48C1056.93,418.807 1057.37,418.992 1057.83,418.993L1119.99,419.15C1119.99,419.15 1120.44,616.805 1120.44,616.805C1120.44,617.747 1121.19,618.515 1122.14,618.538L1199.01,620.441C1199.48,620.453 1199.93,620.276 1200.26,619.95C1200.6,619.624 1200.79,619.177 1200.79,618.71L1201.38,418.618C1201.38,418.618 1263.86,418.595 1263.86,418.595C1264.81,418.595 1265.59,417.822 1265.59,416.866L1265.92,341.743C1265.92,341.281 1265.74,340.837 1265.42,340.51C1265.09,340.182 1264.65,339.998 1264.18,339.998L1058.09,340.11ZM1059.82,343.583L1262.44,343.474C1262.44,343.474 1262.12,415.122 1262.12,415.122C1262.12,415.122 1199.65,415.145 1199.65,415.145C1198.7,415.145 1197.92,415.92 1197.92,416.877C1197.92,416.877 1197.38,597.043 1197.32,616.924C1197.32,616.924 1123.91,615.107 1123.91,615.107C1123.91,615.107 1123.46,417.414 1123.46,417.414C1123.46,416.457 1122.68,415.683 1121.73,415.68L1059.58,415.523L1059.82,343.583Z" style="fill:rgb(255,1,1);"/>
            </g>
        </g>
        <g transform="matrix(1,0,0,1,-0.72599,-2.39585)">
            <g transform="matrix(0.825039,0,0,0.985342,193.762,43.1727)">
                <path d="M927.074,331.072C839.612,337.631 791.805,401.829 797.269,461.559C805.52,551.757 857.278,612.607 934.218,608.523C1004.74,604.78 1040.47,549.834 1053.56,484.579C1075.85,373.444 1022.58,323.909 927.074,331.072ZM930.049,441.306C896.507,442.324 900.348,507.261 935.18,504.881C961.982,503.049 961.581,440.349 930.049,441.306Z" style="fill-opacity:0.75;"/>
                <path d="M926.887,329.316C884.214,332.516 850.847,349.244 828.311,372.479C803.985,397.559 792.292,430.237 795.169,461.694C799.698,511.199 817.286,551.923 844.815,578.128C868.135,600.328 898.578,612.181 934.351,610.282C965.024,608.654 989.246,597.534 1007.97,580.145C1032.9,556.995 1048.05,522.655 1055.63,484.871C1065.43,436.041 1060.68,398.989 1044.36,373.296C1022.99,339.645 981.844,325.194 926.887,329.316L926.887,329.316ZM927.262,332.828C980.237,328.854 1020.05,342.514 1040.64,374.951C1056.63,400.126 1061.08,436.443 1051.48,484.287C1044.05,521.35 1029.3,555.076 1004.84,577.784C986.845,594.498 963.569,605.199 934.084,606.764C899.674,608.59 870.409,597.153 847.976,575.799C820.944,550.067 803.815,510.037 799.368,461.424C796.571,430.847 807.933,399.081 831.579,374.702C853.452,352.151 885.846,335.934 927.262,332.828L927.262,332.828ZM929.973,439.544C921.868,439.79 915.721,443.391 911.511,448.893C906.376,455.606 904.181,465.231 904.889,474.7C905.599,484.196 909.228,493.507 915.505,499.561C920.504,504.381 927.151,507.198 935.351,506.638C940.818,506.264 945.321,503.7 948.752,499.664C954.438,492.977 957.144,482.103 956.567,471.441C956.078,462.408 953.239,453.553 948.072,447.541C943.682,442.432 937.644,439.311 929.973,439.544ZM930.125,443.068C936.307,442.88 941.117,445.483 944.654,449.6C949.405,455.128 951.911,463.296 952.361,471.601C952.807,479.845 951.218,488.242 947.602,494.388C944.724,499.281 940.585,502.743 935.009,503.124C928.254,503.585 922.802,501.22 918.685,497.249C912.944,491.713 909.741,483.164 909.091,474.48C908.442,465.797 910.348,456.951 915.057,450.795C918.504,446.289 923.488,443.269 930.125,443.068Z" style="fill:rgb(255,1,1);fill-opacity:0;"/>
            </g>
            <g transform="matrix(0.825039,0,0,0.985342,192.985,8.54581)">
                <path d="M927.074,331.072C839.475,335.44 798.618,407.768 800.265,477.612C801.912,547.456 846.063,614.814 928.479,609.242C1105.98,597.242 1092.57,322.82 927.074,331.072ZM934.375,447.077C897.615,446.503 892.254,506.418 935.18,504.881C968.323,503.693 969.273,447.622 934.375,447.077Z" style="fill:rgb(211,211,211);"/>
                <path d="M926.949,329.312C881.505,331.578 848.42,351.814 827.146,380.541C806.857,407.939 797.345,443.091 798.16,477.647C799.132,518.861 814.807,559.198 844.192,584.553C865.36,602.818 893.615,613.368 928.649,611C1016.45,605.063 1058.38,535.905 1058.57,467.487C1058.76,395.656 1012.9,325.026 926.949,329.312L926.949,329.312ZM927.2,332.831C1010.67,328.669 1054.54,397.715 1054.35,467.479C1054.18,534.091 1013.8,601.706 928.31,607.485C894.671,609.759 867.539,599.635 847.214,582.098C818.497,557.318 803.319,517.855 802.37,477.577C801.571,443.712 810.841,409.25 830.725,382.399C851.294,354.622 883.26,335.022 927.2,332.831L927.2,332.831ZM934.414,445.315C914.639,445.006 903.149,460.97 902.775,476.796C902.408,492.329 912.606,507.454 935.27,506.642C953.017,506.006 962.444,490.824 962.398,475.581C962.353,460.429 952.989,445.604 934.414,445.315L934.414,445.315ZM934.336,448.84C950.536,449.093 958.148,462.375 958.187,475.589C958.227,488.917 950.606,502.564 935.09,503.119C915.305,503.828 906.664,490.426 906.985,476.866C907.314,462.944 916.941,448.568 934.336,448.84L934.336,448.84Z" style="fill:rgb(255,1,1);"/>
            </g>
        </g>
        <g>
            <g>
                <g transform="matrix(0.995075,-0.0991271,0.103617,1.04015,377.352,110.685)">
                    <path d="M1207.42,669.608L1298.99,700.812L1305.32,675.016L1293.49,529.863L1311.98,529.746L1323.52,708.949L1416.44,747.733L1424.68,722.003L1352.99,364.329L1274.05,332.414L1260.18,347.318L1204.9,623.063L1212.32,647.691L1207.42,669.608ZM1302.95,431.513L1297.77,474.161L1308.43,474.177L1302.95,431.513Z" style="fill-opacity:0.75;"/>
                    <path d="M1205.72,669.261C1205.54,670.076 1206.02,670.894 1206.84,671.174L1298.41,702.378C1298.88,702.537 1299.39,702.498 1299.82,702.272C1300.26,702.045 1300.57,701.653 1300.68,701.192L1307.01,675.396C1307.05,675.23 1307.07,675.058 1307.05,674.887C1307.05,674.887 1296.71,548.088 1295.36,531.513C1295.36,531.513 1310.35,531.418 1310.35,531.418C1311.48,549.039 1321.78,709.051 1321.78,709.051C1321.82,709.673 1322.22,710.222 1322.82,710.472L1415.74,749.256C1416.2,749.446 1416.71,749.441 1417.16,749.243C1417.61,749.045 1417.95,748.673 1418.1,748.22L1426.34,722.49C1426.42,722.231 1426.44,721.957 1426.38,721.69L1354.7,364.016C1354.59,363.471 1354.2,363.014 1353.67,362.798L1274.72,330.883C1274.04,330.606 1273.25,330.778 1272.75,331.309L1258.88,346.213C1258.68,346.437 1258.54,346.71 1258.48,347.005L1203.19,622.75C1203.14,623.007 1203.15,623.271 1203.23,623.523L1210.53,647.751C1210.53,647.751 1205.72,669.261 1205.72,669.261ZM1209.44,668.531L1214.01,648.038C1214.07,647.771 1214.06,647.494 1213.98,647.231L1206.68,622.985C1206.68,622.985 1261.8,348.081 1261.8,348.081C1261.8,348.081 1274.52,334.408 1274.52,334.408C1274.52,334.408 1343,362.092 1351.46,365.514C1351.46,365.514 1420.2,708.477 1422.89,721.911C1422.89,721.911 1415.35,745.465 1415.35,745.465C1415.35,745.465 1325.18,707.832 1325.18,707.832C1325.18,707.832 1313.72,529.644 1313.72,529.644C1313.66,528.763 1312.89,528.078 1311.97,528.084L1293.47,528.201C1292.99,528.205 1292.53,528.399 1292.21,528.739C1291.88,529.078 1291.72,529.533 1291.75,529.992C1291.75,529.992 1303.02,668.114 1303.57,674.888C1303.57,674.888 1297.75,698.623 1297.75,698.623L1209.44,668.531ZM1304.67,431.31C1304.56,430.475 1303.82,429.848 1302.94,429.851C1302.06,429.854 1301.32,430.485 1301.22,431.321L1296.04,473.969C1295.99,474.44 1296.14,474.911 1296.47,475.265C1296.8,475.619 1297.27,475.822 1297.77,475.823L1308.43,475.839C1308.92,475.84 1309.4,475.636 1309.73,475.279C1310.06,474.923 1310.21,474.447 1310.15,473.974L1304.67,431.31ZM1303,445.514L1306.46,472.512C1306.46,472.512 1299.72,472.502 1299.72,472.502L1303,445.514Z" style="fill:rgb(255,1,1);fill-opacity:0;"/>
                </g>
                <g transform="matrix(0.995075,-0.0991271,0.103617,1.04015,392.535,87.5934)">
                    <path d="M1196.16,666.539L1284.99,694.738L1293.49,529.863L1311.98,529.746L1323.52,708.949L1404.05,742.059L1352.99,364.329L1258.82,354.958L1196.16,666.539ZM1302.95,431.513L1297.77,474.161L1308.43,474.177L1302.95,431.513Z" style="fill:rgb(211,211,211);"/>
                    <path d="M1194.45,666.225C1194.29,667.044 1194.78,667.854 1195.61,668.116L1284.44,696.315C1284.95,696.478 1285.52,696.402 1285.97,696.109C1286.41,695.815 1286.69,695.338 1286.72,694.819L1295.14,531.515C1295.14,531.515 1310.35,531.418 1310.35,531.418C1310.35,531.418 1321.78,709.051 1321.78,709.051C1321.82,709.677 1322.23,710.228 1322.83,710.475L1403.37,743.586C1403.94,743.822 1404.6,743.745 1405.1,743.386C1405.6,743.026 1405.86,742.438 1405.78,741.846L1354.71,364.116C1354.61,363.352 1353.97,362.756 1353.17,362.676L1259,353.305C1258.1,353.216 1257.28,353.797 1257.11,354.644L1194.45,666.225ZM1198.15,665.421L1260.22,356.768C1260.22,356.768 1351.45,365.846 1351.45,365.846C1354.54,388.733 1397.39,705.707 1401.94,739.382C1401.94,739.382 1334.18,711.524 1325.18,707.826C1325.18,707.826 1313.72,529.644 1313.72,529.644C1313.66,528.763 1312.89,528.078 1311.97,528.084L1293.47,528.201C1292.55,528.207 1291.8,528.901 1291.75,529.781L1283.36,692.472L1198.15,665.421ZM1304.67,431.31C1304.56,430.475 1303.82,429.848 1302.94,429.851C1302.06,429.854 1301.32,430.485 1301.22,431.321L1296.04,473.969C1295.99,474.44 1296.14,474.911 1296.47,475.265C1296.8,475.619 1297.27,475.822 1297.77,475.823L1308.43,475.839C1308.92,475.84 1309.4,475.636 1309.73,475.279C1310.06,474.923 1310.21,474.447 1310.15,473.974L1304.67,431.31ZM1303,445.514L1306.46,472.512C1306.46,472.512 1299.72,472.502 1299.72,472.502L1303,445.514Z" style="fill:rgb(255,1,1);"/>
                </g>
            </g>
            <g transform="matrix(0.996752,-0.0805311,0.0805311,0.996752,-29.5984,130.716)">
                <path d="M1411.47,329.408L1412.95,594.243L1419.41,613.927L1421.21,639.655L1506.94,657.638L1509.29,632.26L1502.14,518.324L1542.87,666.148L1627.57,690.051L1631.97,667.448L1571.01,494.255L1613.02,357.98L1534.97,351.697L1496.73,467.251L1498.77,348.892L1419.19,315.323L1411.47,329.408Z" style="fill-opacity:0.75;"/>
                <path d="M1409.97,328.588C1409.83,328.842 1409.76,329.128 1409.76,329.418L1411.24,594.252C1411.24,594.43 1411.27,594.607 1411.32,594.776L1417.73,614.258C1417.73,614.258 1419.5,639.774 1419.5,639.774C1419.56,640.536 1420.11,641.17 1420.86,641.327L1506.59,659.309C1507.06,659.409 1507.56,659.301 1507.95,659.012C1508.34,658.723 1508.59,658.28 1508.64,657.795L1510.99,632.418C1511,632.33 1511,632.242 1510.99,632.153C1510.99,632.153 1506.86,566.256 1504.88,534.692C1515.4,572.886 1541.23,666.602 1541.23,666.602C1541.39,667.178 1541.83,667.63 1542.41,667.792L1627.1,691.695C1627.56,691.824 1628.05,691.756 1628.46,691.505C1628.87,691.255 1629.15,690.846 1629.24,690.377L1633.65,667.775C1633.71,667.477 1633.68,667.168 1633.58,666.881C1633.58,666.881 1576.5,504.708 1572.81,494.22C1575.68,484.926 1614.65,358.483 1614.65,358.483C1614.8,357.988 1614.72,357.45 1614.43,357.021C1614.14,356.593 1613.67,356.319 1613.15,356.277L1535.1,349.994C1534.32,349.931 1533.59,350.413 1533.34,351.16L1498.63,456.067C1498.63,456.067 1500.48,348.922 1500.48,348.922C1500.49,348.224 1500.08,347.59 1499.44,347.319L1419.85,313.749C1419.04,313.409 1418.11,313.734 1417.69,314.502L1409.97,328.588ZM1413.18,329.841L1419.94,317.496C1419.94,317.496 1497.05,350.017 1497.05,350.017C1497.05,350.017 1495.02,467.222 1495.02,467.222C1495.01,468.065 1495.61,468.794 1496.45,468.935C1497.28,469.076 1498.09,468.589 1498.35,467.788L1536.16,353.507C1536.16,353.507 1610.76,359.512 1610.76,359.512C1605.53,376.474 1569.38,493.752 1569.38,493.752C1569.27,494.102 1569.28,494.477 1569.4,494.822C1569.4,494.822 1626.84,658.007 1630.2,667.577C1630.2,667.577 1626.24,687.903 1626.24,687.903C1626.24,687.903 1544.27,664.766 1544.27,664.766C1544.27,664.766 1503.79,517.87 1503.79,517.87C1503.55,517.027 1502.72,516.495 1501.86,516.64C1500.99,516.784 1500.38,517.558 1500.43,518.431L1507.58,632.235C1507.58,632.235 1505.41,655.573 1505.41,655.573C1505.41,655.573 1422.82,638.248 1422.82,638.248C1422.82,638.248 1421.12,613.808 1421.12,613.808C1421.11,613.667 1421.08,613.528 1421.04,613.394L1414.65,593.965L1413.18,329.841Z" style="fill:rgb(255,1,1);fill-opacity:0;"/>
            </g>
            <g transform="matrix(0.996752,-0.0805311,0.0805311,0.996752,-22.6294,105.306)">
                <path d="M1412.67,341.641L1411.51,637.408L1497.97,654.894L1498.29,521.29L1539.94,667.864L1622.06,690.101L1571.01,494.255L1613.02,357.98L1534.97,351.697L1496.73,467.251L1498.77,348.892L1412.67,341.641Z" style="fill:rgb(211,211,211);"/>
                <path d="M1412.82,339.91C1412.33,339.869 1411.86,340.032 1411.5,340.36C1411.14,340.687 1410.93,341.149 1410.93,341.634L1409.77,637.401C1409.77,638.23 1410.35,638.946 1411.16,639.11L1497.62,656.597C1498.13,656.7 1498.66,656.569 1499.07,656.24C1499.47,655.911 1499.7,655.419 1499.7,654.898L1500,533.652C1500,533.652 1538.27,668.339 1538.27,668.339C1538.44,668.925 1538.9,669.381 1539.49,669.541L1621.6,691.777C1622.2,691.939 1622.84,691.77 1623.28,691.335C1623.72,690.899 1623.89,690.262 1623.74,689.662L1572.82,494.295C1572.82,494.295 1614.68,358.492 1614.68,358.492C1614.83,357.988 1614.75,357.441 1614.45,357.005C1614.16,356.569 1613.68,356.291 1613.15,356.248L1535.1,349.965C1534.31,349.901 1533.57,350.391 1533.32,351.151L1498.66,455.877C1499.18,426.212 1500.51,348.922 1500.51,348.922C1500.53,348.008 1499.83,347.238 1498.92,347.161L1412.82,339.91ZM1414.4,343.53L1497.01,350.487C1496.76,364.689 1495,467.221 1495,467.221C1494.98,468.079 1495.59,468.82 1496.44,468.964C1497.29,469.107 1498.11,468.612 1498.38,467.797L1536.18,353.538C1536.18,353.538 1610.72,359.538 1610.72,359.538C1610.72,359.538 1569.35,493.743 1569.35,493.743C1569.26,494.052 1569.25,494.381 1569.33,494.693L1619.62,687.641C1619.62,687.641 1541.35,666.444 1541.35,666.444C1541.35,666.444 1499.96,520.815 1499.96,520.815C1499.73,519.982 1498.91,519.45 1498.05,519.569C1497.2,519.687 1496.56,520.419 1496.56,521.285L1496.24,652.772C1496.24,652.772 1413.25,635.988 1413.25,635.988C1413.33,614.936 1414.31,367.606 1414.4,343.53L1414.4,343.53Z" style="fill:rgb(255,1,1);"/>
            </g>
        </g>
        <g>
            <g transform="matrix(0.999968,-0.00805265,0.00841738,1.04526,18.1763,-2.29019)">
                <path d="M1194.97,620.005L1283.69,625.242L1285.45,601.317L1290.93,530.59L1311.23,530.057L1321.43,606.822L1322.3,628.792L1415.09,638.575L1411.23,613.083L1380.61,503.393L1353.12,355.058L1260.14,353.94L1196.87,595.511L1194.97,620.005ZM1304.91,430.546L1298.89,472.296L1309.13,472.371L1304.91,430.546Z" style="fill-opacity:0.75;"/>
                <path d="M1193.24,619.882C1193.2,620.325 1193.35,620.763 1193.66,621.098C1193.96,621.432 1194.4,621.636 1194.86,621.664L1283.58,626.901C1284.53,626.957 1285.36,626.269 1285.42,625.359L1287.19,601.437C1287.19,601.437 1292.55,532.21 1292.55,532.21C1292.55,532.21 1309.71,531.759 1309.71,531.759C1309.71,531.759 1319.7,606.958 1319.7,606.958C1319.7,606.958 1320.57,628.855 1320.57,628.855C1320.6,629.678 1321.26,630.354 1322.11,630.444L1414.9,640.227C1415.43,640.283 1415.97,640.1 1416.34,639.73C1416.71,639.36 1416.89,638.846 1416.81,638.337L1412.95,612.845C1412.94,612.781 1412.92,612.717 1412.9,612.654L1382.3,503.032C1382.3,503.032 1354.83,354.767 1354.83,354.767C1354.68,353.982 1353.97,353.406 1353.14,353.396L1260.16,352.279C1259.35,352.269 1258.65,352.79 1258.45,353.536L1195.18,595.107C1195.16,595.199 1195.14,595.293 1195.14,595.388L1193.24,619.882ZM1196.83,618.45L1198.59,595.776C1198.59,595.776 1261.49,355.619 1261.49,355.619C1261.49,355.619 1351.65,356.702 1351.65,356.702C1351.65,356.702 1378.9,503.683 1378.9,503.683C1378.9,503.729 1378.92,503.776 1378.93,503.821C1378.93,503.821 1408.52,609.814 1409.52,613.418C1409.52,613.418 1413.05,636.688 1413.05,636.688C1413.05,636.688 1323.98,627.297 1323.98,627.297C1323.98,627.297 1323.17,606.759 1323.17,606.759C1323.17,606.71 1323.16,606.661 1323.15,606.612L1312.95,529.847C1312.84,529 1312.08,528.372 1311.18,528.396L1290.88,528.929C1289.99,528.953 1289.27,529.617 1289.2,530.468L1283.72,601.195L1282.08,623.482C1282.08,623.482 1196.83,618.45 1196.83,618.45L1196.83,618.45ZM1306.64,430.386C1306.55,429.547 1305.83,428.901 1304.94,428.884C1304.06,428.867 1303.31,429.483 1303.19,430.318L1297.17,472.068C1297.1,472.542 1297.25,473.021 1297.57,473.383C1297.9,473.744 1298.37,473.954 1298.87,473.957L1309.12,474.032C1309.61,474.036 1310.08,473.84 1310.42,473.492C1310.75,473.145 1310.91,472.679 1310.86,472.211L1306.64,430.386ZM1304.61,444.81L1307.22,470.695C1307.22,470.695 1300.88,470.648 1300.88,470.648L1304.61,444.81Z" style="fill:rgb(255,1,1);fill-opacity:0;"/>
            </g>
            <g transform="matrix(0.999968,-0.00805265,0.00841738,1.04526,19.6778,-27.349)">
                <path d="M1196.71,619.536L1282.69,623.996L1295.15,530.096L1311.23,530.057L1324.76,628.441L1407.53,637.559L1380.61,503.393L1353.12,355.058L1260.14,353.94L1196.71,619.536ZM1304.91,430.546L1298.89,472.296L1309.13,472.371L1304.91,430.546Z" style="fill:rgb(211,211,211);"/>
                <path d="M1195.02,619.165C1194.9,619.643 1195.02,620.145 1195.32,620.536C1195.63,620.927 1196.11,621.168 1196.62,621.195L1282.6,625.655C1283.51,625.702 1284.3,625.069 1284.42,624.205C1284.42,624.205 1295.11,543.609 1296.68,531.754C1296.68,531.754 1309.71,531.722 1309.71,531.722C1309.71,531.722 1323.03,628.658 1323.03,628.658C1323.14,629.413 1323.77,630.005 1324.56,630.092L1407.33,639.21C1407.88,639.271 1408.42,639.078 1408.8,638.69C1409.17,638.302 1409.34,637.766 1409.23,637.246L1382.32,503.091C1382.32,503.091 1354.83,354.767 1354.83,354.767C1354.68,353.982 1353.97,353.406 1353.14,353.396L1260.16,352.279C1259.34,352.269 1258.63,352.807 1258.44,353.57L1195.02,619.165ZM1198.86,617.983L1261.52,355.619C1261.52,355.619 1351.65,356.702 1351.65,356.702C1351.65,356.702 1378.9,503.683 1378.9,503.683C1378.9,503.69 1378.9,503.698 1378.9,503.706C1378.9,503.706 1401.87,618.184 1405.37,635.65C1405.37,635.65 1326.3,626.938 1326.3,626.938C1326.3,626.938 1312.95,529.84 1312.95,529.84C1312.84,529.012 1312.1,528.393 1311.23,528.395L1295.14,528.434C1294.27,528.436 1293.53,529.058 1293.42,529.887L1281.17,622.253L1198.86,617.983ZM1306.64,430.386C1306.55,429.547 1305.83,428.901 1304.94,428.884C1304.06,428.867 1303.31,429.483 1303.19,430.318L1297.17,472.068C1297.1,472.542 1297.25,473.021 1297.57,473.383C1297.9,473.744 1298.37,473.954 1298.87,473.957L1309.12,474.032C1309.61,474.036 1310.08,473.84 1310.42,473.492C1310.75,473.145 1310.91,472.679 1310.86,472.211L1306.64,430.386ZM1304.61,444.81L1307.22,470.695C1307.22,470.695 1300.88,470.648 1300.88,470.648L1304.61,444.81Z" style="fill:rgb(255,1,1);"/>
            </g>
        </g>
    </g>
</svg>
