<?xml version="1.0" encoding="UTF-8" standalone="no"?>
<!DOCTYPE svg PUBLIC "-//W3C//DTD SVG 1.1//EN" "http://www.w3.org/Graphics/SVG/1.1/DTD/svg11.dtd">
<svg width="100%" height="100%" viewBox="0 0 616 382" version="1.1" xmlns="http://www.w3.org/2000/svg" xmlns:xlink="http://www.w3.org/1999/xlink" xml:space="preserve" xmlns:serif="http://www.serif.com/" style="fill-rule:evenodd;clip-rule:evenodd;stroke-linejoin:round;stroke-miterlimit:2;">
    <g transform="matrix(-0.343739,0,-1.73472e-18,-0.285743,686.495,421.3)">
        <path d="M1564.66,590.705L1939.33,316.856L1398.99,528.488C1293.21,500.337 1167.38,485.308 1021.57,488.214C514.528,498.317 260.732,733.077 254.962,964.522C249.192,1195.97 491.449,1424.1 976.51,1420.93C1846.06,1415.27 2038.36,832.064 1564.66,590.705Z" style="fill:white;"/>
        <path d="M1593.31,588.494L1946.23,330.534C1952.01,326.315 1954.23,317.563 1951.42,310.179C1948.6,302.795 1941.63,299.122 1935.21,301.638C1935.21,301.638 1444.26,493.925 1398.31,511.922C1341.93,497.134 1279.94,486.015 1212.38,479.288C1153.02,473.378 1089.34,470.857 1021.35,472.211C781.763,476.985 598.157,531.672 469.891,612.146C319.905,706.246 244.852,836.162 241.664,964.042C238.479,1091.82 306.763,1219.61 447.99,1310.05C569.616,1387.94 745.958,1438.44 976.582,1436.94C1399.64,1434.18 1664.08,1294.63 1772.21,1125.21C1827.36,1038.81 1842.94,944.347 1819.9,854.628C1794.1,754.106 1718.88,658.727 1593.31,588.494L1593.31,588.494ZM1557.75,577.028C1553.48,580.147 1551.03,585.877 1551.39,591.867C1551.75,597.858 1554.87,603.1 1559.47,605.442C1690.01,671.956 1768.9,764.431 1794.48,864.073C1815.07,944.261 1800.39,1028.49 1751.1,1105.72C1645.97,1270.45 1387.8,1402.25 976.438,1404.93C751.382,1406.4 579.184,1357.81 460.494,1281.8C330.412,1198.49 265.326,1082.69 268.26,965.001C271.219,846.342 343.024,727.842 482.195,640.527C607.678,561.799 787.403,508.886 1021.79,504.216C1088.85,502.88 1151.65,505.36 1210.18,511.188C1277.88,517.927 1339.86,529.143 1396.12,544.114C1398.43,544.731 1400.85,544.59 1403.11,543.706L1834.51,374.74C1834.51,374.74 1557.75,577.028 1557.75,577.028Z"/>
    </g>
</svg>
