<?xml version="1.0" encoding="UTF-8" standalone="no"?>
<!DOCTYPE svg PUBLIC "-//W3C//DTD SVG 1.1//EN" "http://www.w3.org/Graphics/SVG/1.1/DTD/svg11.dtd">
<svg width="100%" height="100%" viewBox="0 0 606 333" version="1.1" xmlns="http://www.w3.org/2000/svg" xmlns:xlink="http://www.w3.org/1999/xlink" xml:space="preserve" xmlns:serif="http://www.serif.com/" style="fill-rule:evenodd;clip-rule:evenodd;stroke-linejoin:round;stroke-miterlimit:2;">
    <g transform="matrix(0.343738,-0.000700545,-0.000634447,-0.311306,-79.8227,452.026)">
        <path d="M1564.66,590.705L1927.34,404.864L1398.99,528.488C1293.21,500.337 1167.38,485.308 1021.57,488.214C514.528,498.317 260.732,733.077 254.962,964.522C249.192,1195.97 491.449,1424.1 976.51,1420.93C1846.06,1415.27 2038.36,832.064 1564.66,590.705Z" style="fill:white;"/>
        <path d="M1595.68,591.006C1718.04,659.973 1792.18,752.771 1818.84,850.97C1842.03,936.419 1829.7,1026.35 1781.27,1109.6C1678.93,1285.52 1411.6,1432.79 976.588,1435.62C739.619,1437.17 559.919,1383.85 437.926,1302.33C303.686,1212.62 238.561,1088.54 241.663,964.117C244.774,839.338 316.697,712.971 459.894,619.686C588.643,535.812 775.549,478.423 1021.33,473.526C1089.44,472.169 1153.21,474.699 1212.66,480.625C1280.46,487.384 1342.63,498.562 1399.17,513.43C1399.17,513.429 1924.58,390.493 1924.58,390.493C1931.2,388.944 1937.82,393.13 1939.96,400.22C1942.1,407.31 1939.08,415.043 1932.94,418.189L1595.68,591.005L1595.68,591.006ZM1559.09,604.044C1554.38,601.645 1551.36,596.446 1551.36,590.721C1551.35,584.997 1554.36,579.79 1559.06,577.38L1815.24,446.109C1815.24,446.109 1401.75,542.859 1401.75,542.859C1399.81,543.313 1397.8,543.282 1395.87,542.769C1339.71,527.823 1277.84,516.623 1210.27,509.887C1151.71,504.049 1088.89,501.565 1021.81,502.902C781.798,507.684 599.142,563.086 473.415,644.99C339.874,731.986 271.162,848.56 268.261,964.926C265.387,1080.22 327.314,1194.07 451.703,1277.19C570.506,1356.58 745.659,1407.75 976.431,1406.25C1398.72,1403.49 1659.54,1264.49 1758.89,1093.72C1858.54,922.415 1789.84,721.617 1559.09,604.044Z"/>
    </g>
</svg>
